<svg width="56" height="34" viewBox="0 0 56 34" fill="none" xmlns="http://www.w3.org/2000/svg">
<g id="Group 3">
<rect id="Rectangle 2" width="56" height="34" rx="17" fill="url(#paint0_linear_176_620)"/>
<path id="Vector" d="M19 17C19 17.6213 19.5037 18.125 20.125 18.125H32.6912L27.2041 23.6122C26.7645 24.0518 26.7645 24.7645 27.2041 25.2041C27.6436 25.6436 28.3564 25.6436 28.7959 25.2041L36.625 17.375C36.8321 17.1679 36.8321 16.8321 36.625 16.625L28.7959 8.79594C28.3564 8.35635 27.6436 8.35635 27.2041 8.79594C26.7645 9.23552 26.7645 9.94823 27.2041 10.3878L32.6912 15.875L20.125 15.875C19.5037 15.875 19 16.3787 19 17Z" fill="white"/>
</g>
<defs>
<linearGradient id="paint0_linear_176_620" x1="0" y1="0" x2="30.1659" y2="49.685" gradientUnits="userSpaceOnUse">
<stop stop-color="#FFE855"/>
<stop offset="1" stop-color="#FF0E00"/>
</linearGradient>
</defs>
</svg>
