<svg width="32" height="32" viewBox="0 0 32 32" fill="none" xmlns="http://www.w3.org/2000/svg">
<circle cx="16" cy="16" r="15.5" fill="white" stroke="#E9E9F2"/>
<path fill-rule="evenodd" clip-rule="evenodd" d="M15.999 9.68277C16.8759 8.79955 18.0076 8.48498 19.0928 8.50068C21.7012 8.53842 24.3339 10.667 24.3339 13.7506C24.3339 16.7167 22.4368 19.186 20.5604 20.8648C19.611 21.7142 18.6373 22.3886 17.8465 22.853C17.4514 23.085 17.0952 23.2686 16.8046 23.3965C16.6598 23.4602 16.5239 23.5133 16.4029 23.5517C16.2976 23.5851 16.1492 23.6256 16.0003 23.6256C15.8515 23.6256 15.7031 23.5851 15.5978 23.5517C15.4768 23.5133 15.3409 23.4602 15.1961 23.3965C14.9055 23.2686 14.5493 23.085 14.1542 22.853C13.3634 22.3886 12.3896 21.7142 11.4402 20.8648C9.56387 19.186 7.66675 16.7167 7.66675 13.7506C7.66675 10.6743 10.2933 8.50061 12.9169 8.50061C13.9727 8.50061 15.1152 8.80127 15.999 9.68277ZM19.0747 9.75055C18.0766 9.73611 17.1464 10.075 16.5204 11.014C16.4044 11.1879 16.2093 11.2923 16.0003 11.2923C15.7914 11.2923 15.5962 11.1879 15.4803 11.014C14.8581 10.0807 13.911 9.75061 12.9169 9.75061C10.9153 9.75061 8.91675 11.4311 8.91675 13.7506C8.91675 16.1804 10.4885 18.336 12.2737 19.9332C13.1551 20.7218 14.0603 21.3483 14.7872 21.7751C15.1508 21.9887 15.4631 22.1483 15.6995 22.2523C15.8182 22.3045 15.9104 22.3395 15.9757 22.3602C15.985 22.3632 15.9932 22.3656 16.0003 22.3677C16.0075 22.3656 16.0157 22.3632 16.025 22.3602C16.0903 22.3395 16.1825 22.3045 16.3012 22.2523C16.5375 22.1483 16.8498 21.9887 17.2135 21.7751C17.9403 21.3483 18.8456 20.7218 19.7269 19.9332C21.5122 18.336 23.0839 16.1804 23.0839 13.7506C23.0839 11.4384 21.0914 9.77973 19.0747 9.75055Z" fill="#040509"/>
</svg>
