<svg width="15" height="18" viewBox="0 0 15 18" fill="none" xmlns="http://www.w3.org/2000/svg">
<path fill-rule="evenodd" clip-rule="evenodd" d="M15 7.5C15 3.35786 11.6421 0 7.5 0C3.35786 0 0 3.35786 0 7.5C0 8.52539 0.205776 9.50272 0.578286 10.393C2.12333 14.6114 7.53941 17.5 7.53941 17.5C7.53941 17.5 14.1925 13.9517 14.8546 8.9772C14.95 8.49961 15 8.00565 15 7.5Z" fill="white"/>
<path fill-rule="evenodd" clip-rule="evenodd" d="M13.8039 8.85175L13.7971 8.88619L13.7925 8.92101C13.5152 11.0272 11.9438 12.957 10.2481 14.4384C9.42185 15.1603 8.61161 15.7363 8.00712 16.1318C7.8315 16.2467 7.674 16.3459 7.53939 16.4286C7.44995 16.3736 7.35037 16.3114 7.24208 16.2421C6.73623 15.9184 6.04592 15.444 5.31139 14.8443C3.81442 13.6221 2.25637 11.9777 1.58434 10.1227L1.57601 10.0997L1.56665 10.0771C1.24798 9.30717 1.07141 8.46106 1.07141 7.57051C1.07141 3.98116 3.94958 1.07141 7.49998 1.07141C11.0504 1.07141 13.9286 3.98116 13.9286 7.57051C13.9286 8.01008 13.8855 8.4384 13.8039 8.85175Z" fill="#F75751"/>
<path d="M10.3572 7.50003C10.3572 5.92207 9.07798 4.64288 7.50003 4.64288C5.92207 4.64288 4.64288 5.92207 4.64288 7.50003C4.64288 9.07798 5.92207 10.3572 7.50003 10.3572C9.07798 10.3572 10.3572 9.07798 10.3572 7.50003Z" fill="white"/>
</svg>
