<svg width="24" height="24" viewBox="0 0 24 24" fill="none" xmlns="http://www.w3.org/2000/svg">
<path d="M11.0969 11.4482C13.5678 11.4482 15.571 9.44505 15.571 6.97408C15.571 4.50311 13.5678 2.5 11.0969 2.5C8.62592 2.5 6.6228 4.50311 6.6228 6.97408C6.6228 9.44505 8.62592 11.4482 11.0969 11.4482Z" fill="#9A9A9A"/>
<path fill-rule="evenodd" clip-rule="evenodd" d="M3.99995 17.6708C3.99877 17.3563 4.06911 17.0456 4.20568 16.7623C4.63423 15.9052 5.84275 15.4509 6.84557 15.2452C7.5688 15.0909 8.30202 14.9878 9.03977 14.9367C10.4057 14.8167 11.7794 14.8167 13.1453 14.9367C13.883 14.9884 14.6162 15.0915 15.3395 15.2452C16.3423 15.4509 17.5509 15.8623 17.9794 16.7623C18.2541 17.3399 18.2541 18.0104 17.9794 18.588C17.5509 19.4879 16.3423 19.8993 15.3395 20.0965C14.6171 20.2572 13.8837 20.3632 13.1453 20.4136C12.0336 20.5078 10.9167 20.525 9.8026 20.465C9.54547 20.465 9.2969 20.465 9.03977 20.4136C8.3042 20.3638 7.57352 20.2578 6.85414 20.0965C5.84275 19.8993 4.6428 19.4879 4.20568 18.588C4.06981 18.3013 3.99953 17.988 3.99995 17.6708Z" fill="#9A9A9A"/>
</svg>
